{
  "asset": {
    "version": "2.0",
    "generator": "THREE.GLTFExporter"
  },
  "scenes": [
    {
      "nodes": [
        0
      ]
    }
  ],
  "scene": 0,
  "nodes": [
    {
      "children": [
        11
      ],
      "matrix": [
        0.01,
        0,
        0,
        0,
        0,
        0.01,
        0,
        0,
        0,
        0,
        0.01,
        0,
        0,
        0,
        0,
        1
      ]
    },
    {
      "matrix": [
        1,
        0,
        0,
        0,
        0,
        1,
        0,
        0,
        0,
        0,
        1,
        0,
        -0.17412595450878143,
        -0.03145722672343254,
        0.4368237555027008,
        1
      ],
      "name": "card",
      "mesh": 0
    },
    {
      "matrix": [
        1,
        0,
        0,
        0,
        0,
        1,
        0,
        0,
        0,
        0,
        1,
        0,
        -0.17412595450878143,
        -0.03145722672343254,
        0.4368237555027008,
        1
      ],
      "name": "clip",
      "mesh": 1
    },
    {
      "matrix": [
        1,
        0,
        0,
        0,
        0,
        1,
        0,
        0,
        0,
        0,
        1,
        0,
        -0.17412595450878143,
        -0.03145722672343254,
        0.4368237555027008,
        1
      ],
      "name": "clamp",
      "mesh": 2
    },
    {
      "name": "Scene",
      "children": [
        1,
        2,
        3
      ]
    },
    {
      "name": "AuxScene_1_1",
      "children": [
        4
      ]
    },
    {
      "matrix": [
        1,
        0,
        0,
        0,
        0,
        1,
        0,
        0,
        0,
        0,
        1,
        0,
        0.07238790035247802,
        0,
        0,
        1
      ],
      "name": "AuxScene_1",
      "children": [
        5
      ]
    },
    {
      "matrix": [
        82.88678039816367,
        0,
        0,
        0,
        0,
        82.88678039816367,
        0,
        0,
        0,
        0,
        82.88678039816367,
        0,
        0,
        0,
        0,
        1
      ],
      "name": "card",
      "children": [
        6
      ]
    },
    {
      "matrix": [
        0.5883484054145521,
        0.39223227027636803,
        -0.7071067811865475,
        0,
        -0.554700196225229,
        0.8320502943378437,
        0,
        0,
        0.588348405414552,
        0.392232270276368,
        0.7071067811865476,
        0,
        0,
        0,
        0,
        1
      ],
      "name": "Directional Light",
      "extensions": {
        "KHR_lights_punctual": {
          "light": 0
        }
      }
    },
    {
      "matrix": [
        0.9999984718212074,
        -6.776263578034403e-21,
        -0.0017482434756052898,
        0,
        0.00005925921900610393,
        0.9994253507814383,
        0.0338963818680376,
        0,
        0.001747238848858178,
        -0.03389643366784868,
        0.9994238234808125,
        0,
        5.945944914042826,
        4.753804364431232,
        1000.1508349359102,
        1
      ],
      "camera": 0
    },
    {
      "matrix": [
        1,
        0,
        0,
        0,
        0,
        1,
        0,
        0,
        0,
        0,
        1,
        0,
        0,
        1,
        0,
        1
      ],
      "name": "Default Ambient Light"
    },
    {
      "name": "Scene 1",
      "children": [
        7,
        8,
        9,
        10
      ]
    }
  ],
  "bufferViews": [
    {
      "buffer": 0,
      "byteOffset": 0,
      "byteLength": 13968,
      "target": 34962,
      "byteStride": 12
    },
    {
      "buffer": 0,
      "byteOffset": 13968,
      "byteLength": 13968,
      "target": 34962,
      "byteStride": 12
    },
    {
      "buffer": 0,
      "byteOffset": 27936,
      "byteLength": 9312,
      "target": 34962,
      "byteStride": 8
    },
    {
      "buffer": 0,
      "byteOffset": 37248,
      "byteLength": 8216,
      "target": 34963
    },
    {
      "buffer": 0,
      "byteOffset": 45464,
      "byteLength": 13548,
      "target": 34962,
      "byteStride": 12
    },
    {
      "buffer": 0,
      "byteOffset": 59012,
      "byteLength": 13548,
      "target": 34962,
      "byteStride": 12
    },
    {
      "buffer": 0,
      "byteOffset": 72560,
      "byteLength": 9032,
      "target": 34962,
      "byteStride": 8
    },
    {
      "buffer": 0,
      "byteOffset": 81592,
      "byteLength": 7152,
      "target": 34963
    },
    {
      "buffer": 0,
      "byteOffset": 88744,
      "byteLength": 20652,
      "target": 34962,
      "byteStride": 12
    },
    {
      "buffer": 0,
      "byteOffset": 109396,
      "byteLength": 20652,
      "target": 34962,
      "byteStride": 12
    },
    {
      "buffer": 0,
      "byteOffset": 130048,
      "byteLength": 13768,
      "target": 34962,
      "byteStride": 8
    },
    {
      "buffer": 0,
      "byteOffset": 143816,
      "byteLength": 14328,
      "target": 34963
    }
  ],
  "buffers": [
    {
      "byteLength": 158144,
      "uri": "data:application/octet-stream;base64,"
    }
  ],
  "accessors": [
    {
      "bufferView": 0,
      "componentType": 5126,
      "count": 1164,
      "max": [
        0.35820895433425903,
        1.0229052305221558,
        0.005398052278906107
      ],
      "min": [
        -0.35820895433425903,
        0.02290511131286621,
        0.001373126171529293
      ],
      "type": "VEC3"
    },
    {
      "bufferView": 1,
      "componentType": 5126,
      "count": 1164,
      "max": [
        1,
        1,
        1
      ],
      "min": [
        -1,
        -1,
        -1
      ],
      "type": "VEC3"
    },
    {
      "bufferView": 2,
      "componentType": 5126,
      "count": 1164,
      "max": [
        1,
        0.7572484612464905
      ],
      "min": [
        0.0008288687095046043,
        0.0022159814834594727
      ],
      "type": "VEC2"
    },
    {
      "bufferView": 3,
      "componentType": 5123,
      "count": 4107,
      "max": [
        1163
      ],
      "min": [
        0
      ],
      "type": "SCALAR"
    },
    {
      "bufferView": 4,
      "componentType": 5126,
      "count": 1129,
      "max": [
        0.06820666044950485,
        1.2293701171875,
        0.03205162659287453
      ],
      "min": [
        -0.06900214403867722,
        1.1182847023010254,
        -0.031905218958854675
      ],
      "type": "VEC3"
    },
    {
      "bufferView": 5,
      "componentType": 5126,
      "count": 1129,
      "max": [
        0.9866361618041992,
        0.9999806880950928,
        0.9908397197723389
      ],
      "min": [
        -0.9866361618041992,
        -0.9990124106407166,
        -0.9909759163856506
      ],
      "type": "VEC3"
    },
    {
      "bufferView": 6,
      "componentType": 5126,
      "count": 1129,
      "max": [
        1.0044538974761963,
        1
      ],
      "min": [
        -0.0044538769870996475,
        -0.040865302085876465
      ],
      "type": "VEC2"
    },
    {
      "bufferView": 7,
      "componentType": 5123,
      "count": 3576,
      "max": [
        1128
      ],
      "min": [
        0
      ],
      "type": "SCALAR"
    },
    {
      "bufferView": 8,
      "componentType": 5126,
      "count": 1721,
      "max": [
        0.024095552042126656,
        1.1183339357376099,
        0.04557735472917557
      ],
      "min": [
        -0.02497350051999092,
        0.9323668479919434,
        -0.044764820486307144
      ],
      "type": "VEC3"
    },
    {
      "bufferView": 9,
      "componentType": 5126,
      "count": 1721,
      "max": [
        0.9996973872184753,
        0.9998471736907959,
        0.988928496837616
      ],
      "min": [
        -0.9976668953895569,
        -0.9998417496681213,
        -0.992756187915802
      ],
      "type": "VEC3"
    },
    {
      "bufferView": 10,
      "componentType": 5126,
      "count": 1721,
      "max": [
        1.19272780418396,
        1.7248313426971436
      ],
      "min": [
        -0.051431816071271896,
        -0.07117509841918945
      ],
      "type": "VEC2"
    },
    {
      "bufferView": 11,
      "componentType": 5123,
      "count": 7164,
      "max": [
        1720
      ],
      "min": [
        0
      ],
      "type": "SCALAR"
    }
  ],
  "meshes": [
    {
      "primitives": [
        {
          "mode": 4,
          "attributes": {
            "POSITION": 0,
            "NORMAL": 1,
            "TEXCOORD_0": 2
          },
          "extras": {
            "parameters": {
              "width": 0.7164179086685181,
              "height": 1.0000001192092896,
              "depth": 0.004024926107376814,
              "subdivisions": 0
            },
            "type": "NonParametricGeometry"
          },
          "indices": 3
        }
      ]
    },
    {
      "primitives": [
        {
          "mode": 4,
          "attributes": {
            "POSITION": 4,
            "NORMAL": 5,
            "TEXCOORD_0": 6
          },
          "extras": {
            "parameters": {
              "width": 0.13720880448818207,
              "height": 0.11108541488647461,
              "depth": 0.0639568455517292,
              "subdivisions": 0
            },
            "type": "NonParametricGeometry"
          },
          "indices": 7
        }
      ]
    },
    {
      "primitives": [
        {
          "mode": 4,
          "attributes": {
            "POSITION": 8,
            "NORMAL": 9,
            "TEXCOORD_0": 10
          },
          "extras": {
            "parameters": {
              "width": 0.04906905256211758,
              "height": 0.1859670877456665,
              "depth": 0.09034217521548271,
              "subdivisions": 0
            },
            "type": "NonParametricGeometry"
          },
          "indices": 11
        }
      ]
    }
  ],
  "extensions": {
    "KHR_lights_punctual": {
      "lights": [
        {
          "name": "Directional Light",
          "color": [
            1,
            1,
            1
          ],
          "intensity": 0.7,
          "type": "directional"
        }
      ]
    }
  },
  "cameras": [
    {
      "type": "orthographic",
      "orthographic": {
        "xmag": 1.712353573838393,
        "ymag": 0.9251465836432429,
        "zfar": 100000,
        "znear": 0
      }
    }
  ],
  "extensionsUsed": [
    "KHR_lights_punctual"
  ]
}